<svg xmlns="http://www.w3.org/2000/svg" viewBox="0 0 500 500" xml:space="preserve">
  <g fill="currentColor">
    <path d="m125.44 124.56-.44.44c.11-.13.24-.25.37-.38.02-.03.04-.04.07-.06zM500 0v62.5l-44.75 44.75-52.93 52.94c-7.6-12.87-16.8-24.69-27.31-35.21L500 0z"/>
    <path d="m392.75 44.75-52.94 52.93a175.527 175.527 0 0 0-44.03-18.48c-14.6-3.91-29.94-5.99-45.78-5.99-48.36 0-92.17 19.41-124.09 50.91-.17.14-.32.3-.48.45-.03.01-.04.03-.07.06-.13.13-.25.25-.37.38-.14.13-.25.24-.38.37l-.06.06-.03.03c-31.7 31.95-51.3 75.94-51.3 124.53 0 15.84 2.08 31.19 5.99 45.79 4.17 15.63 10.44 30.4 18.48 44l-52.94 52.96C16.54 352.29 0 303.08 0 250.01V250c0-38.58 8.74-75.12 24.34-107.74a250.811 250.811 0 0 1 48.88-69.04c19.96-19.96 43.27-36.56 69.04-48.88C174.88 8.74 211.42 0 250 0h.01c53.07 0 102.28 16.54 142.74 44.75z"/>
    <path d="m125.44 124.56-.44.44c.11-.13.24-.25.37-.38.02-.03.04-.04.07-.06zM500 250c0 38.58-8.74 75.12-24.34 107.74a250.811 250.811 0 0 1-48.88 69.04c-19.96 19.96-43.27 36.56-69.04 48.88C325.12 491.26 288.58 500 250 500h-.01c-19.31 0-38.1-2.19-56.15-6.32a248.56 248.56 0 0 1-46.74-15.77 247.948 247.948 0 0 1-39.84-22.66c-12.19-8.47-23.57-18.02-34.03-28.47L125 375a177.479 177.479 0 0 0 35.21 27.31 175.32 175.32 0 0 0 44 18.48c14.6 3.91 29.95 5.99 45.79 5.99 3.72 0 7.41-.11 11.07-.35 43.67-2.68 83.02-21.24 112.44-49.94.38-.37.74-.74 1.12-1.11.13-.13.24-.24.37-.38.13-.11.25-.24.38-.37.38-.38.74-.76 1.12-1.14L500 250z"/>
    <path d="m125.44 124.56-.44.44c.11-.13.24-.25.37-.38.02-.03.04-.04.07-.06zM500 125v62.5l-6.32 6.32v.01l-28.87 28.85-38.37 38.37c.24-3.65.35-7.35.35-11.06 0-15.84-2.08-31.17-5.99-45.78l-.01-.01 57.12-57.12L500 125z"/>
    <path d="m125.44 124.56-.44.44c.11-.13.24-.25.37-.38.02-.03.04-.04.07-.06z"/>
  </g>
</svg>
